PathFileType	4	(X/Y/Z)	./resultDataOpenSim/trcMotMarkerGrf/sub09/qtm-02-08.trc
DataRate	CameraRate	NumFrames	NumMarkers	Units	OrigDataRate	OrigDataStartFrame	OrigNumFrames
250.000000	250.000000	12	24	m	250.000000	184	489
Frame#	Time	L.Toe.Tip			R.Toe.Tip			L.Ankle.Lat			R.Ankle.Lat			L.Ankle.Med			R.Ankle.Med			L.Heel			R.Heel			L.Knee.Lat			R.Knee.Lat			L.Knee.Med			R.Knee.Med			L.Thigh.Upper			R.Thigh.Upper			L.ASIS			R.ASIS			V.Sacral			L.Acromium			R.Acromium			C7			L.Elbow			R.Elbow			L.Wrist.Lat			R.Wrist.Lat
		X1	Y1	Z1	X2	Y2	Z2	X3	Y3	Z3	X4	Y4	Z4	X5	Y5	Z5	X6	Y6	Z6	X7	Y7	Z7	X8	Y8	Z8	X9	Y9	Z9	X10	Y10	Z10	X11	Y11	Z11	X12	Y12	Z12	X13	Y13	Z13	X14	Y14	Z14	X15	Y15	Z15	X16	Y16	Z16	X17	Y17	Z17	X18	Y18	Z18	X19	Y19	Z19	X20	Y20	Z20	X21	Y21	Z21	X22	Y22	Z22	X23	Y23	Z23	X24	Y24	Z24

184	0.732	0.19778954	0.015977103	0.011065959	-0.58713442	0.063676052	0.10658746	0.052404627	0.046547826	-0.040144987	-0.62843485	0.21095801	0.14561885	0.065556621	0.068863469	0.055875202	-0.57715248	0.20722106	0.061630267	-0.022744712	0.012364881	-0.00018590292	-0.66832095	0.25227847	0.082877916	0.079746349	0.45687097	-0.097886198	-0.22295816	0.42590879	0.21576368	0.074357521	0.46225503	0.027999933	-0.22035487	0.39460666	0.091954306	-0.12689127	0.82610445	-0.15319122	-0.19952614	0.81536594	0.21866474	-0.068161606	0.91588913	-0.081036101	-0.08536976	0.90104014	0.16127582	-0.2434674	0.9555588	0.025433602	-0.088665681	1.3533226	-0.13267538	-0.12027522	1.3663685	0.19881359	-0.17267166	1.4128037	0.028376709	-0.2611854	1.035629	-0.18131698	-0.24862189	1.0083901	0.26477849	-0.2076736	0.78253409	-0.22446157	-0.028038003	0.83947628	0.24839511
185	0.736	0.19781301	0.015900591	0.011139934	-0.5806805	0.065987375	0.10799351	0.052709774	0.046403831	-0.040083924	-0.61756883	0.21506185	0.14634452	0.065740099	0.068706244	0.055971705	-0.56613481	0.21022806	0.06251105	-0.022735437	0.012385075	-0.00022230361	-0.65632497	0.25794915	0.083854937	0.084185679	0.45611432	-0.097869516	-0.21011336	0.42482116	0.2151345	0.078199981	0.46100026	0.027859188	-0.20770584	0.39379466	0.092267474	-0.12023516	0.826272	-0.15367467	-0.19158205	0.81485848	0.21730015	-0.061813263	0.91618712	-0.081636512	-0.079158879	0.90117573	0.16065562	-0.2363254	0.95620515	0.025577937	-0.081661348	1.3536033	-0.13281228	-0.11345998	1.3664685	0.19869413	-0.16581458	1.4133039	0.028190669	-0.25346237	1.0352985	-0.18207481	-0.24300908	1.0090689	0.26479161	-0.19783911	0.78238318	-0.22450574	-0.024575896	0.8373614	0.24870403
186	0.74	0.19780828	0.015844362	0.011180208	-0.57335781	0.068448822	0.10955048	0.053030822	0.046287366	-0.040086402	-0.60645715	0.21894169	0.14699889	0.065893658	0.068587831	0.056002085	-0.55494194	0.21326578	0.063255619	-0.022741561	0.012396828	-0.00029484888	-0.64430942	0.26355254	0.084993759	0.088584799	0.45550894	-0.097757539	-0.19923552	0.42391546	0.21477837	0.081570145	0.45989619	0.027713137	-0.19513903	0.39329853	0.092399394	-0.1135649	0.82655296	-0.15403829	-0.18404723	0.81452382	0.21620298	-0.055500215	0.9165723	-0.082160115	-0.073043847	0.90141577	0.16009874	-0.22970746	0.95704422	0.02512505	-0.074706093	1.3539665	-0.1329373	-0.10676916	1.3666521	0.19857167	-0.15890284	1.4138998	0.027757557	-0.24576702	1.0350288	-0.18288749	-0.23741236	1.0097685	0.26481935	-0.18787837	0.78230887	-0.224549	-0.021213204	0.83529748	0.24903224
187	0.744	0.19777811	0.015800855	0.01121532	-0.56506059	0.071109045	0.11124415	0.053339051	0.046195406	-0.040121149	-0.59509779	0.222664	0.14754914	0.066004114	0.068492812	0.055995058	-0.54356962	0.21640215	0.063819282	-0.022767139	0.012397538	-0.00037770673	-0.63227185	0.26896901	0.086181253	0.0928549	0.45501834	-0.097603722	-0.18916778	0.42320858	0.21428284	0.084618965	0.45902124	0.027635371	-0.18258428	0.39311363	0.092334565	-0.10685726	0.82703161	-0.15435041	-0.17701777	0.81439089	0.21543144	-0.049223137	0.91706205	-0.082600534	-0.067013987	0.90176729	0.15960765	-0.22341745	0.95805046	0.02421741	-0.067790229	1.3544231	-0.13304458	-0.10020357	1.3669383	0.19844547	-0.15194099	1.4145813	0.027181371	-0.23809698	1.0348359	-0.18373175	-0.23171499	1.0105085	0.26483072	-0.17783873	0.78233163	-0.22454849	-0.017954329	0.83331164	0.24939742
188	0.748	0.1977268	0.015768433	0.011254717	-0.55570593	0.074008973	0.11306219	0.053592774	0.046124586	-0.040164739	-0.58349078	0.22630176	0.14796511	0.066072251	0.068418793	0.055973382	-0.53202165	0.21968115	0.064195403	-0.022811413	0.012389867	-0.00044911467	-0.62007472	0.27393582	0.087200482	0.096845932	0.45467087	-0.097501914	-0.17863339	0.42274534	0.21361413	0.087418646	0.45839487	0.027626819	-0.16999864	0.3932415	0.092074078	-0.10015754	0.82775701	-0.15464432	-0.17033794	0.81443842	0.21486005	-0.042966252	0.91766877	-0.082940741	-0.06107276	0.90223652	0.15917751	-0.21726224	0.95915205	0.023242205	-0.060905559	1.3549828	-0.1331277	-0.093735697	1.3673445	0.19833598	-0.14501605	1.4153662	0.026781008	-0.2304519	1.0347265	-0.18457663	-0.22580762	1.0113176	0.26480957	-0.16773612	0.78247075	-0.22448701	-0.014755029	0.83143078	0.24982047
189	0.752	0.19765978	0.015747479	0.011296745	-0.54529078	0.077129849	0.11497943	0.053767714	0.04607262	-0.040206246	-0.57163555	0.22991845	0.14824938	0.066108357	0.068370743	0.055949283	-0.52031036	0.22311367	0.064399843	-0.022869568	0.012379334	-0.00049974613	-0.6076541	0.27823686	0.087883896	0.1004396	0.45455821	-0.097572346	-0.16673405	0.4226175	0.21321915	0.089985967	0.45798597	0.027638239	-0.15743795	0.39368114	0.091689513	-0.0935588	0.82873594	-0.15492292	-0.16389324	0.81466004	0.21437733	-0.036682888	0.91840381	-0.083151408	-0.055223628	0.90283267	0.15880649	-0.21115284	0.96029039	0.022641002	-0.054054871	1.3556505	-0.13318384	-0.087334342	1.3678822	0.19826187	-0.13821631	1.4162662	0.026713923	-0.22283391	1.0347105	-0.18539914	-0.21968609	1.0122252	0.26476057	-0.15756117	0.7827452	-0.22437308	-0.011568595	0.82966645	0.25031197
190	0.756	0.197583	0.015737034	0.011335586	-0.53390361	0.080369218	0.11697184	0.053864519	0.046032791	-0.040243983	-0.55952565	0.23354964	0.14843074	0.066125361	0.068349301	0.055924295	-0.50844979	0.22665786	0.064452861	-0.022935105	0.012370756	-0.00053184042	-0.59514622	0.28185323	0.088180426	0.10368648	0.45468234	-0.097838866	-0.15362679	0.42286348	0.21346952	0.092349982	0.45774094	0.027629421	-0.14506755	0.39442379	0.091354069	-0.087137847	0.82994314	-0.15518756	-0.15773834	0.81508921	0.21397716	-0.030361314	0.91926784	-0.08322947	-0.049458435	0.90356381	0.1584952	-0.20505941	0.96148022	0.022573783	-0.047248444	1.3564281	-0.13321371	-0.080994677	1.3685583	0.19821881	-0.13154806	1.4172654	0.026819181	-0.21524494	1.0348072	-0.18619238	-0.21344698	1.0132496	0.26470493	-0.14729553	0.78317134	-0.22422855	-0.0083927487	0.82801979	0.25086944
191	0.76	0.19750219	0.015734289	0.011364545	-0.52165929	0.083598653	0.11903993	0.05389489	0.045989964	-0.040279684	-0.54715234	0.2371776	0.14853933	0.066135409	0.068346908	0.055893819	-0.49642466	0.23019511	0.064390253	-0.023002403	0.012366992	-0.00055206637	-0.5827358	0.28491369	0.088125454	0.10676906	0.45485852	-0.098149204	-0.14066582	0.42344706	0.21427613	0.094567352	0.45760343	0.027585824	-0.13306594	0.39544887	0.091260977	-0.080914756	0.831336	-0.15545924	-0.15197433	0.81575573	0.21369695	-0.024088321	0.92024067	-0.083236679	-0.043762382	0.90443051	0.15823687	-0.19890576	0.9627818	0.022777567	-0.040488899	1.3573181	-0.13321637	-0.074724041	1.3693759	0.19818666	-0.12495913	1.4183428	0.026878194	-0.20768755	1.0350352	-0.18695906	-0.20721246	1.0143952	0.26467147	-0.136942	0.78376074	-0.22405997	-0.0052580806	0.82649459	0.25148459
192	0.764	0.19742285	0.015735348	0.011377794	-0.50864639	0.086746741	0.12120445	0.053878115	0.045934747	-0.040317348	-0.53452184	0.24072211	0.14859673	0.066149741	0.068352821	0.055854316	-0.48418418	0.23354978	0.064263541	-0.023067524	0.01236983	-0.00056518884	-0.57044727	0.28757528	0.087823712	0.109794	0.45488351	-0.098328348	-0.12942874	0.42436124	0.21521581	0.096696786	0.45752351	0.02750608	-0.12140925	0.39671273	0.091411249	-0.074873764	0.83286206	-0.15576968	-0.14646004	0.81662184	0.21347639	-0.017967805	0.92129688	-0.083254552	-0.038120154	0.90543008	0.15801805	-0.19254349	0.96421141	0.022934201	-0.033764483	1.3583254	-0.1331881	-0.068516137	1.3703328	0.19815102	-0.11840888	1.4194936	0.026826604	-0.20016758	1.0354005	-0.18770266	-0.20107707	1.0156599	0.26468892	-0.12654145	0.78452008	-0.22383563	-0.0021950019	0.82510332	0.25214855
193	0.768	0.19735054	0.015736764	0.011372489	-0.49494663	0.089808953	0.123482	0.053844947	0.045879782	-0.040362437	-0.521665	0.24406992	0.14862436	0.066178185	0.068359484	0.055807664	-0.47168577	0.23655865	0.064118853	-0.023128121	0.012380535	-0.00057280922	-0.55813574	0.28995795	0.087426809	0.11270284	0.45473093	-0.098361442	-0.12013293	0.42568566	0.2159981	0.098776553	0.4574627	0.027393241	-0.10978233	0.39814777	0.091523459	-0.069017691	0.83446251	-0.15613425	-0.14064837	0.81758198	0.2130824	-0.01199164	0.92242693	-0.08329797	-0.032517122	0.90656355	0.15782726	-0.18597963	0.96568292	0.023215373	-0.027061117	1.3594532	-0.13312901	-0.062357024	1.3714194	0.19811156	-0.11189064	1.4207244	0.026708742	-0.19269127	1.0359	-0.18842216	-0.19510346	1.0170415	0.26478213	-0.11613917	0.7854549	-0.22350865	0.00077989748	0.82386271	0.25285148
194	0.772	0.19728952	0.015737467	0.011349754	-0.48067038	0.092793508	0.12586863	0.053818742	0.04584815	-0.040414007	-0.50862127	0.24712369	0.14865151	0.066226609	0.068364693	0.055758664	-0.45894007	0.23913796	0.063986455	-0.023183282	0.012399985	-0.00057663756	-0.54564004	0.29211838	0.087073112	0.11538837	0.45449958	-0.098349692	-0.11134773	0.42748903	0.21669203	0.10082788	0.45739754	0.027253783	-0.097878144	0.39970352	0.091290627	-0.063400203	0.8360804	-0.15653646	-0.1338852	0.81855012	0.21223243	-0.0060219557	0.92363405	-0.083280484	-0.026941706	0.90783306	0.1576554	-0.1796235	0.96705174	0.024042725	-0.020372336	1.3606976	-0.1330445	-0.056242292	1.372622	0.19807402	-0.10541423	1.42204	0.026577363	-0.18525994	1.0365337	-0.18911067	-0.1893219	1.0185475	0.26494486	-0.10573309	0.78657609	-0.22306046	0.003662173	0.82278466	0.25358205
195	0.776	0.19724036	0.015738487	0.011313472	-0.46594503	0.095688616	0.12833497	0.053787428	0.045846234	-0.040456561	-0.49541602	0.24983219	0.14870959	0.066294382	0.068369477	0.055709098	-0.4460054	0.24129981	0.063886364	-0.02323337	0.012429042	-0.00058155456	-0.53291006	0.29403723	0.086837996	0.11780883	0.45427075	-0.09837566	-0.10146616	0.42968196	0.21740334	0.1028654	0.45731905	0.027095781	-0.085709883	0.40138848	0.090668395	-0.058088595	0.83767606	-0.15694581	-0.126118	0.81956453	0.21090356	0.00013765697	0.92491893	-0.08304572	-0.021387752	0.90923328	0.15749127	-0.1739517	0.96826603	0.025187314	-0.013697341	1.3620482	-0.13293874	-0.050175723	1.373928	0.1980431	-0.098987822	1.4234314	0.026460571	-0.17786997	1.0373037	-0.18976277	-0.18371307	1.0202032	0.2650952	-0.095281275	0.78789873	-0.22251184	0.0064574338	0.82187303	0.25432847
